<svg height="512pt" viewBox="-50 0 511 512" width="512pt" xmlns="http://www.w3.org/2000/svg"><path d="m377.128906 203.316406c-4.269531 0-7.730468-3.457031-7.730468-7.726562v-17.0625c0-89.917969-73.148438-163.070313-163.066407-163.070313s-163.070312 73.152344-163.070312 163.070313v17.0625c0 4.269531-3.457031 7.726562-7.726563 7.726562-4.269531 0-7.730468-3.457031-7.730468-7.726562v-17.0625c0-98.441406 80.085937-178.527344 178.527343-178.527344 98.4375 0 178.523438 80.085938 178.523438 178.527344v17.0625c0 4.269531-3.457031 7.726562-7.726563 7.726562zm0 0" fill="#565574"/><path d="m361.453125 379.484375h-10.601563c-4.269531 0-7.726562-3.460937-7.726562-7.730469 0-4.265625 3.457031-7.726562 7.726562-7.726562h10.601563c5.234375 0 9.492187-4.257813 9.492187-9.492188v-24.988281c0-4.265625 3.460938-7.726563 7.730469-7.726563s7.726563 3.460938 7.726563 7.726563v24.988281c0 13.757813-11.191406 24.949219-24.949219 24.949219zm0 0" fill="#565574"/><path d="m344.667969 512h-276.664063c0-38.199219 15.476563-72.78125 40.515625-97.820312 25.03125-25.03125 59.613281-40.519532 97.8125-40.519532 10.808594 0 21.328125 1.25 31.429688 3.585938.339843.085937.679687.167968 1.019531.25 25.171875 6.046875 47.65625 18.980468 65.371094 36.683594 25.03125 25.039062 40.515625 59.621093 40.515625 97.820312zm0 0" fill="#ed9e27"/><path d="m344.667969 512h-211.746094c0-38.199219 15.476563-72.78125 40.519531-97.820312 17.703125-17.703126 40.1875-30.636719 65.339844-36.683594 25.171875 6.046875 47.65625 18.980468 65.371094 36.683594 25.03125 25.039062 40.515625 59.621093 40.515625 97.820312zm0 0" fill="#fecf77"/><path d="m344.671875 205.199219v94.203125c0 67.414062-48.222656 123.5625-112.0625 135.835937-8.5 1.636719-17.289063 2.492188-26.273437 2.492188-76.398438 0-138.328126-61.929688-138.328126-138.328125v-94.203125c0-76.398438 61.929688-138.335938 138.328126-138.335938 8.984374 0 17.773437.855469 26.273437 2.492188 27.667969 5.316406 52.398437 18.878906 71.546875 38.023437 25.027344 25.039063 40.515625 59.621094 40.515625 97.820313zm0 0" fill="#c67842"/><path d="m344.671875 205.199219v94.203125c0 67.414062-48.222656 123.5625-112.0625 135.835937-63.835937-12.273437-112.058594-68.421875-112.058594-135.835937v-94.203125c0-67.410157 48.222657-123.570313 112.058594-135.84375 27.667969 5.316406 52.398437 18.878906 71.546875 38.023437 25.027344 25.039063 40.515625 59.621094 40.515625 97.820313zm0 0" fill="#e0935f"/><path d="m206.339844 362.179688c-15.769532 0-31.539063-6.003907-43.546875-18.007813-3.015625-3.019531-3.015625-7.914063 0-10.929687 3.019531-3.019532 7.914062-3.019532 10.929687 0 17.984375 17.984374 47.246094 17.984374 65.230469 0 3.019531-3.019532 7.910156-3.019532 10.929687 0 3.019532 3.019531 3.019532 7.914062 0 10.929687-12.003906 12.003906-27.773437 18.007813-43.542968 18.007813zm0 0" fill="#ad622f"/><path d="m344.671875 205.207031-.007813 20.425781c-48.585937 0-100.976562-13.933593-138.238281-67.0625 0 0-36.960937 127.847657-93.59375 205.957032-18.003906 24.832031-37.992187 44.628906-59.417969 53.707031v-92.957031l14.59375-64.703125v-55.367188c0-76.398437 61.929688-138.335937 138.328126-138.335937 7.601562 0 15.074218.617187 22.347656 1.800781.011718.011719.03125.011719.042968.011719 1.308594.207031 2.597657.433594 3.882813.679687 27.667969 5.316407 52.398437 18.878907 71.546875 38.023438 25.027344 25.039062 40.515625 59.621093 40.515625 97.820312zm0 0" fill="#565574"/><path d="m228.726562 68.683594c-65.734374 10.714844-115.894531 67.761718-115.894531 136.523437v159.320313c-18.003906 24.832031-37.992187 44.628906-59.417969 53.707031v-92.957031l14.59375-64.703125v-55.367188c0-76.398437 61.929688-138.335937 138.328126-138.335937 7.601562 0 15.074218.617187 22.347656 1.800781.011718.011719.03125.011719.042968.011719zm0 0" fill="#302e4f"/><path d="m266.605469 291.667969c-4.269531 0-7.730469-3.460938-7.730469-7.730469v-23.695312c0-4.269532 3.460938-7.730469 7.730469-7.730469 4.265625 0 7.726562 3.460937 7.726562 7.730469v23.695312c0 4.269531-3.460937 7.730469-7.726562 7.730469zm0 0" fill="#565574"/><path d="m30.535156 195.589844h7.4375c16.585938 0 30.035156 13.445312 30.035156 30.03125v73.890625c0 16.589843-13.449218 30.035156-30.035156 30.035156h-7.4375c-16.589844 0-30.035156-13.445313-30.035156-30.035156v-73.890625c0-16.585938 13.445312-30.03125 30.035156-30.03125zm0 0" fill="#4da6c1"/><path d="m412.164062 225.628906v73.882813c0 13.671875-9.140624 25.222656-21.648437 28.839843-2.660156.785157-5.472656 1.195313-8.390625 1.195313h-7.4375c-16.582031 0-30.027344-13.445313-30.027344-30.035156v-73.882813c0-16.589844 13.445313-30.039062 30.027344-30.039062h7.4375c2.917969 0 5.730469.414062 8.390625 1.195312 12.507813 3.617188 21.648437 15.167969 21.648437 28.84375zm0 0" fill="#4da6c1"/><path d="m412.164062 225.628906v73.882813c0 13.671875-9.140624 25.222656-21.648437 28.839843-12.5-3.625-21.640625-15.167968-21.640625-28.839843v-73.882813c0-13.675781 9.140625-25.214844 21.640625-28.84375 12.507813 3.617188 21.648437 15.167969 21.648437 28.84375zm0 0" fill="#8fd4ef"/><path d="m68.007812 225.519531v73.882813c0 13.675781-9.140624 25.226562-21.652343 28.84375-12.496094-3.628906-21.636719-15.167969-21.636719-28.84375v-73.882813c0-13.671875 9.140625-25.214843 21.636719-28.839843 12.511719 3.613281 21.652343 15.167968 21.652343 28.839843zm0 0" fill="#8fd4ef"/><path d="m350.851562 371.753906c0 1.105469-.113281 2.175782-.328124 3.214844-1.484376 7-7.699219 12.242188-15.128907 12.242188h-23.699219c-4.265624 0-8.128906-1.730469-10.921874-4.53125-2.804688-2.792969-4.535157-6.65625-4.535157-10.925782 0-6.222656 3.679688-11.589844 8.984375-14.03125 1.96875-.917968 4.164063-1.421875 6.472656-1.421875h23.699219c4.265625 0 8.132813 1.730469 10.921875 4.53125 2.804688 2.792969 4.535156 6.65625 4.535156 10.921875zm0 0" fill="#302e4f"/><path d="m350.851562 371.753906c0 1.105469-.113281 2.175782-.328124 3.214844-1.96875.917969-4.164063 1.425781-6.472657 1.425781h-23.699219c-4.265624 0-8.132812-1.734375-10.921874-4.535156-2.804688-2.792969-4.535157-6.65625-4.535157-10.921875 0-1.105469.113281-2.175781.328125-3.214844 1.96875-.917968 4.164063-1.421875 6.472656-1.421875h23.699219c4.265625 0 8.132813 1.730469 10.921875 4.53125 2.804688 2.792969 4.535156 6.65625 4.535156 10.921875zm0 0" fill="#565574"/><path d="m304.226562 310.117188c0-5.40625-8.765624-9.789063-19.578124-9.789063s-19.578126 4.382813-19.578126 9.789063 8.765626 9.789062 19.578126 9.789062 19.578124-4.382812 19.578124-9.789062zm0 0" fill="#c67842"/></svg>